# xmcd CD database file
#
# Track frame offsets:
#	150
#	45820
#	108063
#	158379
#
# Disc length: 2878 seconds
#
# Revision: 0
# Processed by: cddbd v1.5PL3 Copyright (c) Steve Scherf et al.
# Submitted via: CDex 1.50
#
DISCID=170b3c04
DTITLE=Roland Santé - The Magical Crystal
DYEAR=1900
DGENRE=New Age
TTITLE0=The Healing Energy
TTITLE1=Crystal Worlds
TTITLE2=The Fairy-Forest
TTITLE3=The Magical Crystal
EXTD=
EXTT0=
EXTT1=
EXTT2=
EXTT3=
PLAYORDER=
